Coordinates
version=1
nRows=43
nColumns=12
inDegrees=yes

Units are S.I. units (second, meters, Newtons, ...)
Angles are in degrees

endheader
time	SC_y	SC_z	SC_x	AC_y	AC_z	AC_x	GH_y	GH_z	GH_yy	EL_x	PS_y
       0.0              -44.73         -4.005          61.01          45.74         -6.721           12.0          90.65          73.19         -72.88          73.72          116.6
   0.04557              -44.72         -4.001          61.01          45.74         -6.722           12.0          90.62          73.19         -72.85          73.71          116.6
   0.09114              -44.72         -3.997          61.01          45.74         -6.724           12.0          90.58          73.19         -72.82          73.71          116.6
    0.1367              -44.71         -3.993           61.0          45.75         -6.725           12.0          90.54          73.19         -72.78           73.7          116.6
    0.1823              -44.71         -3.989           61.0          45.75         -6.727           12.0          90.49           73.2         -72.74           73.7          116.6
    0.2279               -44.7         -3.984           61.0          45.75         -6.729           12.0          90.45           73.2          -72.7          73.69          116.6
    0.2734               -44.7         -3.979           61.0          45.75         -6.731           12.0           90.4           73.2         -72.66          73.69          116.6
     0.319              -44.69         -3.974          60.99          45.75         -6.733           12.0          90.35           73.2         -72.61          73.68          116.6
    0.3646              -44.68         -3.968          60.99          45.76         -6.735           12.0          90.29           73.2         -72.56          73.68          116.5
    0.4101              -44.68         -3.962          60.98          45.76         -6.737           12.0          90.23          73.21          -72.5          73.67          116.5
    0.4557              -44.67         -3.956          60.98          45.76          -6.74           12.0          90.16          73.21         -72.45          73.66          116.5
    0.5013              -44.66         -3.949          60.97          45.76         -6.742           12.0          90.09          73.21         -72.38          73.65          116.5
    0.5469              -44.65         -3.941          60.97          45.77         -6.745           12.0          90.02          73.22         -72.32          73.65          116.5
    0.5924              -44.64         -3.933          60.96          45.77         -6.748          11.99          89.94          73.22         -72.24          73.64          116.4
     0.638              -44.63         -3.924          60.96          45.77         -6.752          11.99          89.85          73.22         -72.17          73.63          116.4
    0.6836              -44.62         -3.914          60.95          45.78         -6.755          11.99          89.75          73.23         -72.08          73.62          116.4
    0.7291               -44.6         -3.904          60.94          45.78         -6.759          11.99          89.65          73.23         -71.99          73.61          116.4
    0.7747              -44.59         -3.893          60.94          45.79         -6.764          11.99          89.54          73.24         -71.89          73.59          116.3
    0.8203              -44.58          -3.88          60.93          45.79         -6.768          11.99          89.41          73.24         -71.78          73.58          116.3
    0.8659              -44.56         -3.867          60.92           45.8         -6.774          11.99          89.28          73.25         -71.66          73.56          116.3
    0.9114              -44.54         -3.852          60.91           45.8         -6.779          11.98          89.13          73.25         -71.52          73.55          116.2
     0.957              -44.52         -3.835           60.9          45.81         -6.786          11.98          88.96          73.26         -71.38          73.53          116.2
     1.003               -44.5         -3.817          60.88          45.82         -6.793          11.98          88.78          73.27         -71.22          73.51          116.1
     1.048              -44.47         -3.797          60.87          45.83           -6.8          11.98          88.58          73.28         -71.04          73.49          116.1
     1.094              -44.45         -3.775          60.85          45.84         -6.809          11.98          88.36          73.29         -70.84          73.46          116.0
     1.139              -44.42          -3.75          60.84          45.85         -6.818          11.97          88.11           73.3         -70.62          73.44          115.9
     1.185              -44.38         -3.722          60.82          45.86         -6.829          11.97          87.83          73.31         -70.37          73.41          115.9
      1.23              -44.34          -3.69           60.8          45.87         -6.841          11.97          87.52          73.32         -70.09          73.37          115.8
     1.276               -44.3         -3.655          60.77          45.88         -6.855          11.96          87.17          73.34         -69.78          73.33          115.7
     1.322              -44.25         -3.614          60.74           45.9          -6.87          11.96          86.76          73.35         -69.42          73.29          115.6
     1.367              -44.19         -3.568          60.71          45.92         -6.888          11.95          86.31          73.37         -69.01          73.24          115.4
     1.413              -44.13         -3.515          60.67          45.94         -6.908          11.94          85.78           73.4         -68.54          73.18          115.3
     1.458              -44.05         -3.454          60.63          45.97         -6.931          11.94          85.17          73.42          -68.0          73.11          115.1
     1.504              -43.97         -3.384          60.58           46.0         -6.958          11.93          84.47          73.45         -67.37          73.04          114.9
     1.549              -43.87         -3.301          60.53          46.03          -6.99          11.92          83.64          73.49         -66.64          72.95          114.7
     1.595              -43.75         -3.203          60.46          46.07         -7.027          11.91          82.67          73.53         -65.77          72.84          114.4
     1.641               -43.6         -3.087          60.38          46.12         -7.072          11.89          81.51          73.58         -64.74          72.71          114.1
     1.686              -43.43         -2.947          60.28          46.17         -7.125          11.88          80.12          73.63          -63.5          72.56          113.7
     1.732              -43.23         -2.779          60.16          46.24         -7.189          11.85          78.44          73.71         -62.01          72.38          113.3
     1.777              -42.98         -2.573          60.02          46.33         -7.268          11.83          76.39          73.79         -60.18          72.15          112.7
     1.823              -42.66         -2.319          59.85          46.43         -7.365           11.8          73.86           73.9         -57.93          71.88          112.0
     1.868              -42.28         -2.002          59.63          46.56         -7.486          11.76          70.71          74.03         -55.12          71.53          111.1
     1.914              -41.79         -1.603          59.35          46.72         -7.638          11.71          66.73           74.2         -51.58          71.09          110.0
